<?xml version="1.0" standalone="no"?>
<!DOCTYPE svg PUBLIC "-//W3C//DTD SVG 20010904//EN"
 "http://www.w3.org/TR/2001/REC-SVG-20010904/DTD/svg10.dtd">
<svg version="1.0" xmlns="http://www.w3.org/2000/svg"
 width="1920.000000pt" height="1920.000000pt" viewBox="0 0 1920.000000 1920.000000"
 preserveAspectRatio="xMidYMid meet">

<g transform="translate(0.000000,1920.000000) scale(0.100000,-0.100000)"
fill="#000000" stroke="none">
<path d="M9430 18229 c-232 -28 -479 -124 -691 -266 -133 -88 -226 -167 -371
-315 l-137 -140 -78 30 c-222 86 -483 86 -703 1 -233 -89 -444 -294 -539 -523
-64 -155 -90 -325 -71 -482 21 -171 87 -342 183 -470 57 -75 176 -189 240
-229 31 -19 46 -35 43 -45 -2 -8 -36 -107 -75 -220 -88 -258 -165 -512 -237
-783 -31 -117 -58 -213 -59 -215 -2 -2 -120 35 -262 82 -707 233 -1312 373
-1899 440 -505 58 -985 37 -1359 -59 -536 -137 -912 -418 -1110 -830 -225
-468 -200 -1023 78 -1730 65 -166 247 -526 363 -721 l91 -150 -35 -40 c-251
-287 -309 -699 -148 -1040 56 -118 93 -171 180 -263 128 -132 278 -221 453
-268 84 -23 118 -26 243 -26 124 0 159 3 241 25 53 15 130 43 171 63 l75 36
69 -73 c38 -40 149 -155 248 -255 l179 -182 -134 -138 c-811 -834 -1484 -1742
-1834 -2476 -323 -676 -426 -1263 -305 -1742 162 -647 688 -1054 1510 -1171
156 -22 625 -30 829 -15 604 46 1304 201 2083 462 147 49 271 89 277 89 5 0
15 -24 21 -52 28 -118 182 -645 240 -818 414 -1239 933 -2077 1541 -2485 103
-70 297 -166 403 -200 166 -53 267 -68 456 -68 141 0 194 4 276 21 456 98 843
374 1214 867 444 590 826 1465 1116 2558 31 117 58 214 59 215 2 2 120 -35
262 -82 459 -151 857 -259 1268 -341 800 -160 1464 -174 1987 -41 535 135 914
419 1113 831 263 548 183 1241 -240 2080 -61 121 -149 283 -194 360 -371 623
-924 1319 -1570 1977 l-204 208 134 138 c171 176 415 443 581 638 l131 153 51
-21 c128 -52 193 -62 366 -62 151 0 173 3 255 28 337 103 585 356 677 693 32
117 32 355 0 473 -42 153 -123 302 -227 418 l-47 52 70 153 c212 460 314 836
329 1203 32 820 -437 1405 -1289 1609 -213 51 -353 66 -656 72 -312 6 -487 -3
-779 -43 -533 -71 -1095 -208 -1744 -425 -148 -49 -273 -89 -278 -89 -5 0 -15
24 -21 53 -28 117 -182 644 -240 817 -414 1239 -933 2077 -1541 2485 -103 70
-297 166 -403 200 -190 61 -444 87 -626 64z m360 -405 c164 -31 350 -116 506
-232 134 -98 352 -323 477 -491 410 -549 761 -1347 1042 -2372 31 -112 57
-219 58 -237 l2 -33 -205 -83 c-587 -239 -1277 -567 -1881 -894 l-207 -112
-218 117 c-551 293 -1188 590 -1799 839 -250 101 -250 101 -248 130 7 86 214
786 321 1082 l48 134 124 2 c258 6 467 90 647 260 176 165 274 361 303 599 26
222 -36 469 -165 653 l-45 65 19 27 c36 51 246 248 334 313 152 113 324 195
487 229 108 24 289 25 400 4z m-1882 -424 c34 -6 97 -22 140 -35 236 -75 428
-282 498 -536 27 -98 25 -290 -5 -394 -74 -262 -284 -467 -552 -541 -45 -13
-100 -18 -189 -18 -89 0 -144 5 -189 18 -538 148 -753 778 -416 1216 167 217
451 332 713 290z m7482 -2645 c572 -79 933 -296 1111 -670 86 -179 115 -341
106 -585 -3 -85 -12 -191 -21 -236 -48 -263 -139 -537 -271 -822 -43 -91 -51
-103 -69 -97 -238 71 -491 56 -711 -44 -195 -89 -377 -273 -471 -477 -64 -138
-78 -208 -78 -399 0 -145 4 -182 22 -250 28 -101 97 -241 157 -323 26 -34 45
-68 42 -75 -16 -36 -577 -655 -741 -816 l-65 -64 -133 125 c-372 350 -871 777
-1333 1141 l-170 134 -7 79 c-4 43 -16 185 -28 314 -70 797 -189 1607 -341
2329 -33 156 -38 195 -28 202 26 16 587 199 779 254 542 157 1065 258 1520
294 165 14 591 5 730 -14z m-10680 -50 c564 -62 1180 -205 1860 -431 140 -46
258 -88 263 -93 5 -5 -11 -105 -36 -227 -156 -755 -281 -1654 -350 -2514 l-12
-155 -105 -84 c-529 -424 -904 -747 -1333 -1150 -110 -102 -202 -187 -207
-189 -6 -2 -294 292 -434 445 l-48 52 25 33 c14 18 41 65 60 103 241 484 41
1070 -447 1305 -208 100 -464 121 -690 55 -49 -14 -90 -24 -91 -23 -17 17
-177 300 -245 433 -183 358 -295 675 -346 980 -21 124 -24 389 -5 495 28 156
88 308 172 432 197 290 582 481 1079 537 52 6 111 13 130 15 85 10 624 -3 760
-19z m7280 -687 c79 -365 176 -912 234 -1333 53 -380 124 -1029 115 -1053 -2
-5 -110 67 -239 159 -589 423 -1207 825 -1825 1187 -132 77 -249 147 -259 154
-18 13 -15 16 40 48 128 72 712 365 937 469 365 170 940 418 974 420 6 1 16
-23 23 -51z m-4485 -93 c241 -97 531 -225 805 -352 257 -120 860 -423 860
-432 0 -3 -121 -78 -268 -165 -617 -368 -1221 -768 -1832 -1214 -149 -109
-206 -145 -209 -134 -15 66 105 1040 195 1577 44 264 149 809 160 826 5 9 18
5 289 -106z m2312 -1136 c827 -471 1660 -1019 2490 -1638 84 -63 77 -37 93
-356 39 -792 39 -1590 0 -2390 -15 -318 7 -269 -188 -415 -597 -446 -1091
-788 -1627 -1127 -349 -221 -948 -576 -971 -576 -29 0 -728 411 -1123 661
-542 342 -1048 691 -1598 1101 -84 63 -77 37 -93 356 -39 797 -39 1587 0 2390
15 318 -7 269 188 415 855 638 1529 1087 2376 1581 213 124 220 127 247 114
15 -8 108 -60 206 -116z m6298 -620 c69 -18 125 -41 119 -50 -3 -5 1 -6 9 -3
13 5 97 -32 97 -43 0 -2 -5 -1 -12 3 -7 4 -8 3 -4 -5 4 -6 12 -9 17 -6 12 8
60 -30 51 -40 -4 -5 -1 -5 6 0 27 15 222 -211 222 -256 0 -7 6 -20 14 -28 23
-26 56 -139 66 -231 18 -162 -19 -339 -101 -474 -47 -78 -137 -178 -152 -169
-5 3 -7 1 -3 -5 3 -6 -14 -24 -40 -41 l-45 -31 -132 4 c-103 3 -147 9 -197 26
-223 76 -347 170 -498 375 -11 15 -74 145 -76 158 -2 7 -6 19 -9 27 -51 125
-57 371 -12 505 37 107 57 151 78 168 41 33 116 67 134 61 14 -4 15 -4 4 4
-16 11 89 47 184 61 68 11 220 5 280 -10z m-12394 -498 c241 -62 438 -238 525
-471 112 -298 39 -613 -193 -830 -165 -156 -410 -233 -628 -200 -385 59 -656
370 -658 755 0 184 46 321 159 472 116 156 294 262 492 293 79 12 213 4 303
-19z m9399 -1160 c274 -227 681 -585 930 -820 l75 -71 -75 -71 c-363 -347
-752 -691 -1174 -1038 l-77 -63 8 238 c10 311 10 1519 0 1838 l-9 248 104 -83
c57 -46 155 -126 218 -178z m-6730 -114 c-12 -338 -8 -1543 6 -1841 l7 -129
-104 84 c-375 302 -780 653 -1106 958 -62 57 -113 108 -113 112 0 7 317 305
505 475 248 223 806 696 813 689 2 -2 -2 -158 -8 -348z m8217 -1254 c792 -827
1332 -1539 1673 -2208 247 -485 362 -878 364 -1240 0 -226 -31 -380 -112 -540
-184 -367 -534 -575 -1117 -662 -168 -25 -691 -25 -915 0 -443 50 -873 138
-1385 283 -242 69 -733 228 -748 243 -5 5 11 105 36 227 156 755 281 1654 350
2514 l12 155 105 84 c533 427 955 791 1365 1179 94 89 173 161 177 162 3 0 91
-89 195 -197z m-9585 -48 c355 -328 800 -708 1177 -1005 268 -211 237 -169
251 -345 62 -835 202 -1824 366 -2588 20 -93 33 -171 30 -174 -3 -3 -103 -39
-223 -80 -979 -335 -1832 -499 -2493 -480 -394 12 -681 72 -923 193 -245 122
-402 277 -508 499 -86 179 -115 341 -106 585 8 226 48 418 143 690 275 790
976 1798 1938 2787 118 121 119 122 141 105 12 -9 105 -93 207 -187z m7309
-1664 c-39 -428 -111 -984 -187 -1436 -50 -301 -151 -816 -162 -827 -14 -14
-656 256 -1092 459 -260 121 -860 423 -860 432 0 4 15 15 33 25 594 340 1396
865 2067 1354 148 107 206 145 209 134 2 -9 -2 -72 -8 -141z m-5196 -48 c634
-452 1332 -902 1963 -1263 51 -29 95 -56 97 -61 7 -11 -49 -41 -490 -264 -435
-219 -691 -338 -1067 -498 -313 -133 -408 -171 -414 -164 -3 3 -32 137 -64
299 -95 468 -175 977 -235 1473 -29 244 -65 604 -65 648 l0 29 33 -24 c17 -14
127 -92 242 -175z m2701 -1670 c557 -296 1267 -626 1839 -855 110 -44 204 -83
208 -87 21 -20 -174 -693 -313 -1086 -303 -853 -651 -1476 -1045 -1871 -159
-160 -274 -250 -414 -322 -182 -95 -327 -132 -511 -132 -184 0 -329 37 -511
132 -140 72 -255 162 -414 322 -489 490 -920 1358 -1249 2513 -91 320 -111
402 -100 412 5 4 97 43 204 86 225 91 533 225 805 350 236 110 871 431 1105
559 96 52 176 96 176 96 1 0 100 -52 220 -117z"/>
<path d="M9390 11699 c-145 -15 -299 -49 -450 -98 -632 -209 -1134 -710 -1340
-1339 -146 -447 -146 -877 0 -1323 259 -792 968 -1356 1809 -1439 281 -28 567
6 851 99 632 209 1134 710 1340 1340 146 446 146 876 0 1323 -305 930 -1236
1536 -2210 1437z m1198 -774 c214 -100 473 -444 583 -775 40 -122 51 -275 25
-345 -22 -56 -66 -85 -128 -85 -160 0 -434 273 -594 593 -122 243 -163 495
-95 587 41 56 122 66 209 25z"/>
<path d="M16100 11905 c-7 -9 -11 -17 -9 -20 3 -2 10 5 17 15 14 24 10 26 -8
5z"/>
<path d="M16441 11917 c2 -1 13 -9 24 -17 19 -14 19 -14 6 3 -7 9 -18 17 -24
17 -6 0 -8 -1 -6 -3z"/>
<path d="M16420 11886 c0 -2 8 -10 18 -17 15 -13 16 -12 3 4 -13 16 -21 21
-21 13z"/>
</g>
</svg>
